<?xml version="1.0" encoding="UTF-8"?> <svg xmlns="http://www.w3.org/2000/svg" xmlns:xlink="http://www.w3.org/1999/xlink" viewBox="0 0 327.33 167.79"> <defs> <style>.cls-1{isolation:isolate;}.cls-2{opacity:0.27;mix-blend-mode:multiply;}.cls-3{fill:url(#linear-gradient);}.cls-4{fill:#fbb03b;}.cls-5{fill:#fff;}.cls-6{fill:#ccc;}.cls-7{fill:none;stroke:#fff;stroke-miterlimit:10;opacity:0.23;}</style> <linearGradient id="linear-gradient" x1="34.57" y1="90.59" x2="316.92" y2="90.59" gradientUnits="userSpaceOnUse"> <stop offset="0" stop-color="#38a6f9"></stop> <stop offset="1" stop-color="#2c90f7"></stop> </linearGradient> </defs> <title>rollout_site_16</title> <g class="cls-1"> <g id="Layer_1" data-name="Layer 1"> <g class="cls-2"> <image width="324" height="197" transform="translate(-11.62 -19.65)"></image> </g> <polygon class="cls-3" points="316.93 134.47 35.87 164.26 34.57 46.72 315.63 16.93 316.93 134.47"></polygon> <path class="cls-4" d="M292,62.14l-33.7,4.21a7.89,7.89,0,0,1-9.2-7.79h0a10.38,10.38,0,0,1,9-10.07l33.7-4.21a7.89,7.89,0,0,1,9.2,7.79h0A10.38,10.38,0,0,1,292,62.14Z"></path> <path class="cls-5" d="M292,62.14h0a7.89,7.89,0,0,1-9.2-7.79h0a10.38,10.38,0,0,1,9-10.07h0a7.89,7.89,0,0,1,9.2,7.79h0A10.38,10.38,0,0,1,292,62.14Z"></path> <path class="cls-6" d="M258.75,104l33.7-4.21a7.89,7.89,0,0,1,9.2,7.79h0a10.38,10.38,0,0,1-9,10.07l-33.7,4.21a7.89,7.89,0,0,1-9.2-7.79h0A10.38,10.38,0,0,1,258.75,104Z"></path> <path class="cls-5" d="M258.75,104h0a7.89,7.89,0,0,1,9.2,7.79h0a10.38,10.38,0,0,1-9,10.07h0a7.89,7.89,0,0,1-9.2-7.79h0A10.38,10.38,0,0,1,258.75,104Z"></path> <path class="cls-4" d="M147,74.93l-33.7,4.21a7.89,7.89,0,0,1-9.2-7.79h0a10.38,10.38,0,0,1,9-10.07l33.7-4.21a7.89,7.89,0,0,1,9.2,7.79h0A10.38,10.38,0,0,1,147,74.93Z"></path> <path class="cls-5" d="M147,74.93h0a7.89,7.89,0,0,1-9.2-7.79h0a10.38,10.38,0,0,1,9-10.07h0a7.89,7.89,0,0,1,9.2,7.79h0A10.38,10.38,0,0,1,147,74.93Z"></path> <path class="cls-6" d="M113.76,116.75l33.7-4.21a7.89,7.89,0,0,1,9.2,7.79h0a10.38,10.38,0,0,1-9,10.07L114,134.61a7.89,7.89,0,0,1-9.2-7.79h0A10.38,10.38,0,0,1,113.76,116.75Z"></path> <path class="cls-5" d="M113.76,116.75h0a7.89,7.89,0,0,1,9.2,7.79h0a10.38,10.38,0,0,1-9,10.07h0a7.89,7.89,0,0,1-9.2-7.79h0A10.38,10.38,0,0,1,113.76,116.75Z"></path> <path class="cls-5" d="M57,142.48V121.24a2.88,2.88,0,0,1,2.55-2.8L85,115.9a2.27,2.27,0,0,1,2.55,2.29v21.24a2.89,2.89,0,0,1-2.55,2.8l-25.37,2.54A2.27,2.27,0,0,1,57,142.48Zm28.52-24.1a.54.54,0,0,0-.6-.54l-25.37,2.54a.69.69,0,0,0-.6.66v21.24a.54.54,0,0,0,.6.54L85,140.29a.69.69,0,0,0,.6-.66Z"></path> <path class="cls-5" d="M73.26,138.94a.77.77,0,0,1-.68.75l-11.06,1.11a.6.6,0,0,1-.68-.61V122.77a.77.77,0,0,1,.68-.74l11.06-1.11a.6.6,0,0,1,.68.61Z"></path> <path class="cls-5" d="M83.7,137.9a.77.77,0,0,1-.68.75l-7.39.74a.61.61,0,0,1-.68-.61v-7a.77.77,0,0,1,.68-.74l7.39-.74a.6.6,0,0,1,.68.61Z"></path> <path class="cls-5" d="M83.7,127.51a.77.77,0,0,1-.68.75l-7.39.74a.61.61,0,0,1-.68-.61v-7a.77.77,0,0,1,.68-.74l7.39-.74a.6.6,0,0,1,.68.61Z"></path> <path class="cls-5" d="M72.87,68.24a7.28,7.28,0,0,0-6.43,7.07,5.72,5.72,0,0,0,6.43,5.79A7.28,7.28,0,0,0,79.3,74,5.72,5.72,0,0,0,72.87,68.24Z"></path> <path class="cls-5" d="M88.54,61.78,82,62.43V58.9a2.79,2.79,0,0,0-3.13-2.82l-12,1.2a3.54,3.54,0,0,0-3.13,3.45v3.53l-6.53.65a3.54,3.54,0,0,0-3.13,3.45V85.73a2.79,2.79,0,0,0,3.13,2.82l31.34-3.14A3.54,3.54,0,0,0,91.67,82V64.6A2.79,2.79,0,0,0,88.54,61.78ZM72.87,83.92a8.22,8.22,0,0,1-9.25-8.32,10.46,10.46,0,0,1,9.25-10.17,8.22,8.22,0,0,1,9.25,8.32A10.46,10.46,0,0,1,72.87,83.92Zm13.61-15a1.64,1.64,0,0,1-1.85-1.66,2.09,2.09,0,0,1,1.85-2,1.64,1.64,0,0,1,1.85,1.66A2.09,2.09,0,0,1,86.48,68.92Z"></path> <path class="cls-5" d="M229.15,69.31l-8.81-14.25V47.49l1.74-.17v-2.2l-11.38,1.14v2.2l1.74-.17v7.57l-8.81,16a3.66,3.66,0,0,0-.44,1.71,3.05,3.05,0,0,0,3.36,3.1h0l19.68-2h0a3.89,3.89,0,0,0,3.36-3.77A3.18,3.18,0,0,0,229.15,69.31Zm-16.63,3.11a1.85,1.85,0,0,1-2.08-1.87,2.35,2.35,0,0,1,2.08-2.29,1.85,1.85,0,0,1,2.08,1.87A2.35,2.35,0,0,1,212.53,72.42Zm4.06-4.76a1.14,1.14,0,0,1-1.29-1.16,1.46,1.46,0,0,1,1.29-1.42,1.14,1.14,0,0,1,1.29,1.16A1.45,1.45,0,0,1,216.58,67.66Zm-4.12-7.48,1.88-3.41a2.36,2.36,0,0,0,.3-1.14V48.08l3.51-.35v7.55a2,2,0,0,0,.3,1.08l1.88,3Z"></path> <path class="cls-5" d="M218.77,115.06,215,113.14c-.44-.23-.8,0-.8.53v4.74c0,.52.36.68.8.37l3.78-2.72C219.22,115.73,219.21,115.28,218.77,115.06Z"></path> <path class="cls-5" d="M223,103.68v2.93l-13.26,1.33V105l-5.36.54v22.7l5.36-.54V124.9L223,123.58v2.81l5.36-.54v-22.7Zm-14.52,19.21a.57.57,0,0,1-.5.55l-1.84.18a.45.45,0,0,1-.5-.45v-2a.57.57,0,0,1,.5-.55l1.84-.18a.44.44,0,0,1,.5.45Zm0-5.31a.57.57,0,0,1-.5.55l-1.84.18a.45.45,0,0,1-.5-.45v-2a.57.57,0,0,1,.5-.55l1.84-.18a.45.45,0,0,1,.5.45Zm0-5.43a.57.57,0,0,1-.5.55l-1.84.18a.45.45,0,0,1-.5-.45v-2a.57.57,0,0,1,.5-.55l1.84-.18a.44.44,0,0,1,.5.45ZM223,120.54l-13.26,1.33V111L223,109.65Zm4.16.48a.57.57,0,0,1-.5.55l-1.84.18a.45.45,0,0,1-.5-.45v-2a.57.57,0,0,1,.5-.55l1.84-.18a.44.44,0,0,1,.5.45Zm0-5.31a.57.57,0,0,1-.5.55l-1.84.18a.45.45,0,0,1-.5-.45v-2a.57.57,0,0,1,.5-.55l1.84-.18a.45.45,0,0,1,.5.45Zm0-5.43a.57.57,0,0,1-.5.55l-1.84.18a.45.45,0,0,1-.5-.45v-2a.57.57,0,0,1,.5-.55l1.84-.18a.45.45,0,0,1,.5.45Z"></path> <line class="cls-7" x1="178.66" y1="32.14" x2="177.82" y2="148.31"></line> </g> </g> </svg> 